<?xml version="1.0" encoding="UTF-8" standalone="no"?>
<!DOCTYPE svg PUBLIC "-//W3C//DTD SVG 1.1//EN" "http://www.w3.org/Graphics/SVG/1.1/DTD/svg11.dtd">
<svg xmlns="http://www.w3.org/2000/svg" xmlns:xlink="http://www.w3.org/1999/xlink" version="1.1" width="558.666pt" height="384.326pt" viewBox="75 75 633.666 459.326">
<style>
.fie-logo-f {
    fill: #dddddd;
}

.fie-logo-a {
    fill: white;
}

.fie-logo-k {
    fill: #dddddd;
}

.fie-logo-e {
    fill: white;
}

.fie-logo-i {
    fill: white;
}

.fie-logo-t {
    fill: #dddddd;
}

.fie-logo-easy {
    fill: white;
}
</style>
<g enable-background="new">
<g id="Layer-1" data-name="Ebene 1">
<path
  transform="matrix(1,0,0,-1,204.6992,297.9803)"
  d="M 0 0 L -60.781 0 L -60.781 43.474 L 125.596 43.31 L 125.59 -.16 L 68.088 0 L 68.088 -128.941 L 0 -128.941 Z "
  class="fie-logo-t"/>
<path
  transform="matrix(1,0,0,-1,76.1006,254.5921)"
  d="M 0 0 L 67.818 0 L 67.83 62.057 L 165.498 62.057 L 165.498 104.069 L 67.83 104.069 L 67.83 130.397 L 173.912 130.397 L 174.577 172.416 L 0 172.416 Z "
  class="fie-logo-f"/>
<path
  transform="matrix(1,0,0,-1,289.6714,134.3363)"
  d="M 0 0 L .44 0 L 19.61 -58.432 L -19.191 -58.432 Z M 39.717 52.166 L -39.267 52.157 L -108.63 -120.215 L -40.175 -120.262 L -33.33 -100.45 L 33.768 -100.45 L 40.624 -120.334 L 109.07 -120.25 Z "
  class="fie-logo-a"/>
<path
  transform="matrix(1,0,0,-1,434.4604,188.42948)"
  d="M 0 0 L 17.005 -19.8 L 17.005 -66.163 L 68.55 -66.163 L 68.55 106.256 L 17.005 106.256 L 17.005 45.398 L -30.858 106.256 L -105.075 106.259 L -40.939 39.596 L -104.165 -66.241 L -35.621 -66.163 Z "
  class="fie-logo-k"/>
<path
  transform="matrix(1,0,0,-1,502.5063,82.176578)"
  d="M 0 0 L 128.651 0 L 128.651 -42.019 L 47.802 -42.019 L 47.802 -65.198 L 128.651 -65.198 L 128.651 -107.217 L 47.802 -107.217 L 47.802 -130.397 L 128.651 -130.397 L 128.651 -172.416 L 0 -172.416 Z "
  class="fie-logo-e"/>
<symbol id="font_0_41">
<path
  d="M .46800003 .407 C .43933336 .40566669 .40333335 .4053333 .36 .40600003 L .25 .408 C .23333335 .40866665 .21933334 .409 .208 .40899999 C .19666668 .4096667 .19200002 .41 .194 .41000004 C .17400001 .41 .156 .40600003 .14 .398 C .14066667 .38333334 .13833334 .3623333 .133 .33499999 C .12766667 .32966668 .12133334 .3206667 .11400001 .30800004 C .105333339 .284 .09433333 .24266668 .081 .184 C .08766667 .17866667 .10033333 .17600002 .119 .17600002 C .13166668 .17600002 .15066667 .17733334 .17600002 .17999999 C .202 .18333332 .22133334 .18499999 .23400001 .18499999 C .2726667 .18499999 .31566669 .18133332 .363 .17400001 C .36833335 .17266667 .375 .16966667 .38300003 .165 L .38000003 .15699999 C .36333335 .14833333 .34266673 .14400001 .31800003 .14400001 C .31000004 .14400001 .29733337 .14533334 .28 .14799999 C .26333336 .15133333 .25100003 .15300001 .24300002 .15300001 C .25366668 .15300001 .198 .14666666 .076000008 .13399999 C .072000008 .12466665 .066 .100666668 .058000003 .06199999 C .064 .056666659 .075333338 .053666664 .09200001 .053000004 C .114 .052333338 .13599999 .052333338 .158 .053000004 C .19000001 .053666664 .21466668 .05399999 .23200001 .05399999 C .32933335 .05399999 .40333335 .042999995 .45400004 .020999998 C .45733337 .018999994 .45900003 .01366666 .45900003 .004999995 L .41700004 .004999995 C .40166668 .004999995 .37866668 .006999994 .34800003 .0109999929 C .31733335 .015666658 .29433335 .017999992 .279 .017999992 C .18500002 .017999992 .10300001 .0119999949 .033 0 C .020333333 .012666662 .014000001 .023999995 .014 .033999996 C .014000001 .041999993 .017 .057666657 .023000002 .080999989 C .029000001 .105 .032 .12099999 .032 .129 C .032 .13633333 .029000001 .14066667 .023000002 .142 C .013000001 .144 .0053333339 .14666666 0 .14999999 L 0 .17 C .008 .17199999 .020333333 .17566668 .037 .18100001 C .039666669 .19433333 .048666669 .22966667 .064 .287 C .075333338 .33033333 .081 .354 .081 .35799999 C .081 .36066667 .07733333 .36566667 .07 .37300004 C .06266667 .381 .059000005 .38666667 .059000005 .39 C .059000005 .406 .06566667 .41799999 .079 .426 C .082333337 .428 .09633335 .433 .12100001 .44099999 C .14100002 .44766665 .15333335 .45099999 .158 .45099999 C .222 .45099999 .30533336 .4443333 .40800003 .431 C .43333338 .42766667 .45333336 .41966669 .46800003 .407 Z "/>
</symbol>
<symbol id="font_0_3d">
<path
  d="M .47000004 .21400002 C .47000004 .20266669 .46533338 .19700001 .45600004 .19700001 C .454 .19700001 .4486667 .19800002 .44000004 .2 C .43466667 .20133335 .431 .20100002 .42900003 .19900002 C .43966667 .15500002 .45300005 .08866667 .469 0 C .44833336 .008000001 .428 .050333337 .40800003 .127 C .4026667 .147 .396 .17366667 .388 .20700002 C .33666668 .22166668 .26000003 .24266668 .158 .27 C .12466667 .21133335 .079333338 .13066668 .022 .028 C .018666666 .022 .011333332 .017333335 0 .014000002 C .016666668 .07733334 .05766667 .16600001 .123 .28 C .12166667 .28133334 .106000009 .28766669 .076000008 .29900003 C .058666666 .3056667 .049 .31633336 .047000003 .33100004 C .058333339 .341 .06933334 .34600006 .08 .34600003 C .085333328 .34600006 .09599999 .34300003 .112 .337 C .128 .331 .13833334 .328 .143 .328 C .149 .328 .17500001 .3726667 .22100002 .462 C .23900001 .49733333 .26233337 .53933337 .291 .58800008 C .2916667 .58933338 .29533337 .5926667 .30200003 .59800007 C .30933336 .6033334 .31300003 .60766676 .31300003 .61100009 L .33800004 .61100009 C .34000004 .60766676 .34000004 .60166677 .33800004 .59300008 C .336 .5836667 .335 .577 .335 .5730001 C .335 .56566676 .34266667 .5406667 .358 .498 C .3806667 .43533335 .40300004 .34966669 .425 .24100003 C .42633335 .2336667 .432 .22833336 .44200004 .22500003 C .4566667 .21966668 .466 .216 .47000004 .21400002 M .384 .243 C .37066666 .31566669 .3446667 .41 .30600003 .526 C .27333335 .47533337 .23600002 .41433335 .194 .34300003 C .186 .32900004 .182 .3166667 .18200001 .30600003 C .28 .26933337 .34000004 .25100003 .36200003 .25100003 C .36533336 .25100003 .3696667 .24966669 .37500004 .24700001 C .38033334 .24433334 .38333337 .24299999 .384 .243 Z "/>
</symbol>
<symbol id="font_0_4f">
<path
  d="M .486 .47500003 C .48599998 .45900003 .4793333 .44733335 .46600003 .44 C .45066668 .4333333 .43533335 .42633335 .42000003 .41900004 C .42 .421 .419 .42466665 .417 .43 C .41566668 .43533335 .41500006 .439 .41500003 .44099999 C .43566669 .447 .446 .4563333 .446 .46900005 C .446 .48100005 .4316667 .487 .403 .487 C .36766664 .487 .32000003 .47166667 .26000003 .44099999 C .19466669 .40766669 .16200002 .375 .16200002 .343 C .16200002 .31100003 .21100001 .27733336 .30900003 .24200002 C .33633337 .232 .368 .21700001 .404 .197 C .456 .16766668 .48200003 .14333333 .48200003 .124000009 C .48200003 .111999999 .4696667 .094000007 .44500003 .07 C .42033337 .046000005 .40233336 .033666668 .391 .033 C .38033334 .032333334 .3643333 .027999999 .343 .020000004 C .3216667 .012666665 .30866669 .008999996 .304 .008999996 C .29999999 .008999996 .27366669 .0076666648 .22500001 .0050000029 L .14600002 0 C .13266666 0 .10733334 .0059999998 .07000001 .018 C .023333336 .033333336 0 .049333335 0 .06600001 C 0 .06933334 .002666667 .07366667 .008000001 .079 C .012666669 .08433334 .015333336 .08800001 .016000003 .09000001 C .0133333359 .068666677 .035333337 .052666677 .082 .042000005 C .11200001 .03533333 .14400001 .031999999 .17800002 .031999999 C .30133335 .031999999 .38900004 .06266666 .441 .124000009 C .411 .154 .365 .18133335 .303 .206 C .289 .21066666 .26833336 .21833332 .24100001 .229 C .16166668 .25966669 .12200001 .29833333 .12200001 .345 C .12200001 .36633338 .143 .3956667 .18500002 .43300004 C .21100003 .4556667 .246 .4766667 .29 .496 C .33666668 .51666668 .37600003 .527 .40800003 .527 C .4206667 .527 .4366667 .52099999 .456 .509 C .47599999 .4976667 .48599998 .48633338 .486 .47500003 Z "/>
</symbol>
<symbol id="font_0_55">
<path
  d="M .48200003 .584 C .4226667 .49733339 .37400005 .4186667 .33600004 .34800003 C .32000003 .3186667 .3026667 .2916667 .284 .26700003 C .26666669 .23366668 .24900002 .20366669 .231 .17700002 C .21366668 .15100001 .19433333 .12166667 .17300001 .089 C .15100001 .053000004 .13933334 .025666668 .13800001 .007 C .136 .006333334 .13266666 .004 .128 0 C .12066666 .0066666675 .117000009 .013333335 .117 .020000002 C .117000009 .040000004 .135 .079666677 .171 .13900002 C .185 .16100002 .20566666 .194 .23300001 .23800002 C .24166668 .25266669 .26000003 .2866667 .28800003 .34000004 C .25533334 .36000005 .20633334 .3906667 .141 .432 C .047000003 .49333335 0 .5376666 0 .565 C 0 .579 .0066666665 .586 .02 .586 C .024666667 .586 .02833333 .58500006 .031 .583 L .035 .579 C .054999997 .55633339 .08366666 .5273333 .12100001 .492 C .22900002 .41333334 .29000003 .37399999 .30400003 .374 C .31066669 .37399999 .331 .4036667 .36500005 .46300004 C .40433336 .5316667 .43500004 .57699999 .45700003 .599 C .46300004 .5936667 .47133336 .5886667 .48200003 .584 Z "/>
</symbol>
<use xlink:href="#font_0_41"
  transform="matrix(142.202,0,0,-248.7006,356.5122,394.19599)"
  class="fie-logo-easy"/>
<use xlink:href="#font_0_3d"
  transform="matrix(142.202,0,0,-248.7006,420.64533,428.76536)"
  class="fie-logo-easy"/>
<use xlink:href="#font_0_4f"
  transform="matrix(142.202,0,0,-248.7006,491.0353,405.3875)"
  class="fie-logo-easy"/>
<use xlink:href="#font_0_55"
  transform="matrix(142.202,0,0,-248.7006,560.0033,436.7238)"
  class="fie-logo-easy"/>
<path
  transform="matrix(1,0,0,-1,0,534.326)"
  d="M 76.101 279.819 L 143.931 279.819 L 143.931 107.407 L 76.101 107.407 Z "
  class="fie-logo-i"/>
</g>
</g>
</svg>
